<svg width="22" height="20" viewBox="0 0 22 20" fill="none" xmlns="http://www.w3.org/2000/svg">
<path d="M2.79557 5.97257C1.87247 7.06382 1.16806 8.34601 0.75 9.75148C2.0413 14.088 6.05875 17.25 10.8147 17.25C11.8073 17.25 12.7677 17.1123 13.6779 16.8549M5.04327 3.97763C6.69953 2.88558 8.68335 2.25 10.8156 2.25C15.5716 2.25 19.5891 5.41205 20.8804 9.74852C20.1685 12.1419 18.6262 14.1777 16.5876 15.522M5.04327 3.97763L1.81564 0.75M5.04327 3.97763L8.69432 7.62868M16.5876 15.522L19.8156 18.75M16.5876 15.522L12.937 11.8713M12.937 11.8713C13.4799 11.3284 13.8156 10.5784 13.8156 9.75C13.8156 8.09315 12.4725 6.75 10.8156 6.75C9.98722 6.75 9.23722 7.08579 8.69432 7.62868M12.937 11.8713L8.69432 7.62868" stroke="#727073" stroke-width="1.5" stroke-linecap="round" stroke-linejoin="round"/>
</svg>
