<svg width="25" height="25" viewBox="0 0 25 25" fill="none" xmlns="http://www.w3.org/2000/svg">
<path d="M20.1021 9.81376L20.6054 9.88334C23.4871 10.2829 25.4279 9.34459 24.9187 7.79834C24.4092 6.25293 24.4092 3.72251 24.9187 2.1771C25.4283 0.630847 23.4871 -0.307485 20.6054 0.0920977L18.2983 0.412514C16.6675 0.638347 15.2092 1.3971 14.2471 2.39543C14.0013 1.72001 13.4858 2.1796 12.5004 2.1796C11.515 2.1796 10.9992 1.7196 10.7533 2.39543C9.79167 1.3971 8.33292 0.638347 6.7025 0.412514L4.39542 0.0920977C1.51333 -0.307485 -0.427917 0.630847 0.08125 2.1771C0.591667 3.72251 0.591667 6.25293 0.08125 7.79834C-0.428333 9.34459 1.51333 10.2829 4.39542 9.88334L4.89833 9.81376C4.21042 12.5213 2.81917 15.7883 0 18.3333H5.41667V25C5.41667 25 10.0604 18.4025 10.9217 7.93626C11.2092 8.18459 11.6996 7.88126 12.5004 7.88126C13.3008 7.88126 13.7913 8.18418 14.0788 7.93626C14.94 18.4025 19.5833 25 19.5833 25V18.3333H25C22.1808 15.7883 20.7896 12.5213 20.1021 9.81376ZM6.58875 8.81126L4.28167 9.13168C3.87833 9.18751 3.48833 9.21584 3.12125 9.21584C1.84458 9.21584 1.13625 8.88501 0.899583 8.57584C0.820833 8.47376 0.560417 8.24376 0.786667 8.02751C3.46583 5.46543 10.4662 6.73543 10.4662 6.73543C9.65417 7.76293 8.20333 8.58751 6.58875 8.81126ZM18.4121 8.81126C16.7975 8.58751 15.3467 7.76251 14.5342 6.73543C14.5342 6.73543 21.5354 5.46501 24.2133 8.02751C24.4404 8.24418 24.1792 8.47376 24.1008 8.57584C23.8642 8.88501 23.1558 9.21584 21.8792 9.21584C21.5121 9.21584 21.1217 9.18751 20.7187 9.13168L18.4121 8.81126Z" fill="#BA2771"/>
</svg>
