<svg width="70" height="70" viewBox="0 0 70 70" fill="none" xmlns="http://www.w3.org/2000/svg">
<g filter="url(#filter0_d_1_2103)">
<path d="M66 0H4V62H66V0Z" fill="#B92770"/>
<path d="M33.157 57V37.5928H35.294C35.294 37.6518 35.302 37.711 35.302 37.772C35.302 44.1193 35.302 50.4669 35.302 56.8149C35.302 56.8769 35.295 56.938 35.292 57H33.157ZM19.715 48.1108C15.6451 44.5758 12.9808 39.696 12.208 34.3608H14.376C14.499 34.9298 14.606 35.4938 14.745 36.0518C15.5203 39.2095 17.05 42.1322 19.203 44.5688C21.8063 47.5689 25.2346 49.7373 29.061 50.8032C29.776 51.0032 30.514 51.1332 31.239 51.3032C31.285 51.3152 31.357 51.3668 31.357 51.4028C31.365 52.0928 31.357 52.7819 31.357 53.5029C27.0321 52.8839 22.984 51.0096 19.715 48.1108ZM37.108 51.3271C41.3602 50.6484 45.2858 48.6335 48.316 45.5742C51.3743 42.5384 53.388 38.6085 54.066 34.353H56.226C55.5256 39.1762 53.2863 43.6441 49.8415 47.0918C46.3967 50.5395 41.9306 52.7823 37.108 53.4868V51.3271ZM37.352 40.5962C37.352 40.5452 37.436 40.4732 37.495 40.4502C38.2405 40.1689 38.9482 39.796 39.602 39.3408C41.24 38.2156 42.4904 36.612 43.182 34.749C43.192 34.702 43.2194 34.6605 43.2587 34.6328C43.298 34.6052 43.3464 34.5935 43.394 34.6001C44.039 34.6071 44.685 34.6001 45.329 34.6001H45.483C44.934 36.5398 43.8976 38.3065 42.4726 39.7324C41.0476 41.1583 39.2814 42.1958 37.342 42.7461C37.345 42.0191 37.342 41.3081 37.352 40.6001V40.5962ZM22.972 34.6011H23.954C24.333 34.6011 24.712 34.6011 25.091 34.6011C25.1292 34.5954 25.1681 34.6046 25.1999 34.6265C25.2316 34.6484 25.2538 34.6815 25.262 34.7192C25.7021 35.9131 26.3733 37.0079 27.2373 37.9419C28.1013 38.8759 29.1411 39.6306 30.297 40.1621C30.525 40.2721 30.768 40.3521 30.997 40.4561C31.046 40.4791 31.112 40.5429 31.112 40.5889C31.119 41.2959 31.112 42.0039 31.112 42.7109C31.112 42.7209 31.102 42.7312 31.097 42.7412C29.161 42.1896 27.3981 41.1519 25.976 39.7271C24.5539 38.3022 23.5198 36.5382 22.972 34.6011ZM34.234 34.7241C33.3762 34.7212 32.5543 34.3789 31.948 33.772C31.3417 33.1651 31.0002 32.3427 30.998 31.4849C31.002 30.6273 31.345 29.8062 31.9522 29.2007C32.5594 28.5952 33.3815 28.2545 34.239 28.2529C34.6613 28.2551 35.0789 28.3414 35.4675 28.5063C35.8562 28.6713 36.2082 28.9117 36.5031 29.2139C36.7979 29.5161 37.0298 29.874 37.1851 30.2666C37.3405 30.6592 37.4163 31.0788 37.408 31.501C37.4132 31.9213 37.3351 32.3385 37.1782 32.7285C37.0213 33.1185 36.7888 33.4737 36.494 33.7734C36.1992 34.0731 35.848 34.3113 35.4607 34.4746C35.0733 34.6379 34.6574 34.7233 34.237 34.7251L34.234 34.7241ZM40.57 32.564H40.34V30.4141H59.747V32.5532C59.668 32.5532 59.59 32.5649 59.511 32.5649L40.57 32.564ZM8.74805 32.5562V30.4268H28.114V32.5562H8.74805ZM54.04 28.4658C53.5322 25.4115 52.3289 22.5151 50.523 20C48.8594 17.6593 46.72 15.6967 44.245 14.2402C42.2228 13.0398 40.0055 12.2036 37.694 11.77L37.117 11.6621V9.48682C41.2171 10.0663 45.0733 11.781 48.25 14.437C52.5964 17.9985 55.4542 23.0564 56.262 28.6172C56.182 28.6172 56.128 28.625 56.072 28.625C55.462 28.625 54.85 28.625 54.24 28.625H54.231C54.108 28.628 54.062 28.5938 54.04 28.4658ZM14.268 28.627C13.612 28.627 12.956 28.627 12.3 28.627C12.2706 28.6231 12.2416 28.617 12.213 28.6089C12.9395 23.6312 15.3107 19.0398 18.949 15.5659C22.3382 12.2873 26.6795 10.1678 31.349 9.51123V11.6611C31.049 11.7181 30.749 11.7759 30.449 11.8379C27.8469 12.3688 25.3759 13.4105 23.179 14.9028C20.1131 16.9594 17.6621 19.809 16.087 23.1479C15.2803 24.842 14.7164 26.6416 14.412 28.4932C14.396 28.5882 14.37 28.6309 14.272 28.6309L14.268 28.627ZM25.058 28.3809C24.413 28.3749 23.767 28.3809 23.123 28.3809H22.972C23.5234 26.4411 24.5613 24.6744 25.9873 23.2485C27.4134 21.8227 29.1802 20.785 31.12 20.2339V20.4209C31.12 21.0489 31.12 21.6772 31.12 22.3062C31.1285 22.3599 31.1163 22.4149 31.0859 22.46C31.0555 22.5051 31.0091 22.5366 30.956 22.5488C29.6558 23.0319 28.475 23.7898 27.4941 24.7705C26.5132 25.7512 25.7553 26.9318 25.272 28.2319C25.2612 28.2785 25.2341 28.3194 25.1955 28.3477C25.157 28.3759 25.1097 28.3899 25.062 28.3862L25.058 28.3809ZM43.196 28.248C42.711 26.9306 41.9441 25.7352 40.9488 24.7451C39.9535 23.755 38.754 22.9942 37.434 22.5161C37.408 22.5061 37.382 22.491 37.352 22.478V20.2412C39.2909 20.7894 41.0571 21.8248 42.4823 23.249C43.9076 24.6732 44.9444 26.4385 45.494 28.377H44.786C44.322 28.377 43.858 28.377 43.394 28.377H43.386C43.3438 28.3825 43.301 28.3724 43.2657 28.3486C43.2304 28.3249 43.2049 28.2892 43.194 28.248H43.196ZM33.167 25.3828V6H35.294V25.3818L33.167 25.3828Z" fill="white"/>
</g>
<defs>
<filter id="filter0_d_1_2103" x="0" y="0" width="70" height="70" filterUnits="userSpaceOnUse" color-interpolation-filters="sRGB">
<feFlood flood-opacity="0" result="BackgroundImageFix"/>
<feColorMatrix in="SourceAlpha" type="matrix" values="0 0 0 0 0 0 0 0 0 0 0 0 0 0 0 0 0 0 127 0" result="hardAlpha"/>
<feOffset dy="4"/>
<feGaussianBlur stdDeviation="2"/>
<feComposite in2="hardAlpha" operator="out"/>
<feColorMatrix type="matrix" values="0 0 0 0 0 0 0 0 0 0 0 0 0 0 0 0 0 0 0.25 0"/>
<feBlend mode="normal" in2="BackgroundImageFix" result="effect1_dropShadow_1_2103"/>
<feBlend mode="normal" in="SourceGraphic" in2="effect1_dropShadow_1_2103" result="shape"/>
</filter>
</defs>
</svg>
